<svg xmlns="http://www.w3.org/2000/svg" viewBox="0 0 48 48"><path fill="#FFF" d="M46.66 1.33a4.53 4.53 0 0 0-6.41 0l-2 2c-1.59-.5-2.33.67-4 2.32l-1-1a3.42 3.42 0 0 0-4.74 0L16.94 16.31a1 1 0 0 0 .71 1.69c.59 0-.09.5 10-9.58l1.92 1.92C2.1 37.82 3.5 36.34 3.38 36.69-.25 47.61-.29 47.11.3 47.71a1 1 0 0 0 1 .24c10.78-3.61 10.09-3.33 10.34-3.56.88-.82 12.39-12.38 32.5-32.49a2.16 2.16 0 0 0 .52-2.19l2-2a4.53 4.53 0 0 0 0-6.38zM30 6.07a1.4 1.4 0 0 1 1.92 0l7.62 7.62-1.92 1.92L29.05 7zm6.21 11L21 32.26 15.73 27 31 11.77zM11 42.25 5.74 37l8.58-8.58 5.25 5.25zm-6.22-3.4 4.37 4.37-6.55 2.2zm38-28.37L41 12.28 35.71 7c1.83-1.82 1.87-2 2-1.79 5.42 5.4 5.22 5.09 5.04 5.27zm2.5-4.16-1.82 1.79c-2.2-2.19-1.38-1.38-3.58-3.58l1.79-1.79a2.53 2.53 0 0 1 3.58 3.58z"/></svg>
